<?xml version="1.0" encoding="UTF-8"?>
<svg xmlns="http://www.w3.org/2000/svg" xmlns:xlink="http://www.w3.org/1999/xlink" fill-opacity="1" color-rendering="auto" color-interpolation="auto" stroke="black" text-rendering="auto" stroke-linecap="square" width="1264" stroke-miterlimit="10" stroke-opacity="1" shape-rendering="auto" fill="black" stroke-dasharray="none" font-weight="normal" stroke-width="1" height="946" font-family="'Dialog'" font-style="normal" stroke-linejoin="miter" font-size="12" stroke-dashoffset="0" image-rendering="auto">
  <!--Generated by ySVG-->
  <defs id="genericDefs"/>
  <g>
    <defs id="defs1">
      <linearGradient x1="165" gradientUnits="userSpaceOnUse" x2="285" y1="140" y2="180" id="linearGradient1" spreadMethod="pad">
        <stop stop-opacity="1" stop-color="rgb(232,238,247)" offset="0%"/>
        <stop stop-opacity="1" stop-color="rgb(183,201,227)" offset="100%"/>
      </linearGradient>
      <linearGradient x1="165" gradientUnits="userSpaceOnUse" x2="285" y1="35" y2="75" id="linearGradient2" spreadMethod="pad">
        <stop stop-opacity="1" stop-color="rgb(232,238,247)" offset="0%"/>
        <stop stop-opacity="1" stop-color="rgb(183,201,227)" offset="100%"/>
      </linearGradient>
      <linearGradient x1="395.56" gradientUnits="userSpaceOnUse" x2="515.56" y1="0" y2="40" id="linearGradient3" spreadMethod="pad">
        <stop stop-opacity="1" stop-color="rgb(232,238,247)" offset="0%"/>
        <stop stop-opacity="1" stop-color="rgb(183,201,227)" offset="100%"/>
      </linearGradient>
      <linearGradient x1="395.56" gradientUnits="userSpaceOnUse" x2="515.56" y1="140" y2="180" id="linearGradient4" spreadMethod="pad">
        <stop stop-opacity="1" stop-color="rgb(232,238,247)" offset="0%"/>
        <stop stop-opacity="1" stop-color="rgb(183,201,227)" offset="100%"/>
      </linearGradient>
      <linearGradient x1="0" gradientUnits="userSpaceOnUse" x2="285" y1="-105" y2="-65" id="linearGradient5" spreadMethod="pad">
        <stop stop-opacity="1" stop-color="rgb(232,238,247)" offset="0%"/>
        <stop stop-opacity="1" stop-color="rgb(0,204,255)" offset="100%"/>
      </linearGradient>
      <linearGradient x1="395.56" gradientUnits="userSpaceOnUse" x2="515.56" y1="-105" y2="-65" id="linearGradient6" spreadMethod="pad">
        <stop stop-opacity="1" stop-color="rgb(232,238,247)" offset="0%"/>
        <stop stop-opacity="1" stop-color="rgb(0,204,255)" offset="100%"/>
      </linearGradient>
      <linearGradient x1="395.56" gradientUnits="userSpaceOnUse" x2="515.56" y1="70" y2="110" id="linearGradient7" spreadMethod="pad">
        <stop stop-opacity="1" stop-color="rgb(232,238,247)" offset="0%"/>
        <stop stop-opacity="1" stop-color="rgb(183,201,227)" offset="100%"/>
      </linearGradient>
      <linearGradient x1="0" gradientUnits="userSpaceOnUse" x2="120" y1="0" y2="40" id="linearGradient8" spreadMethod="pad">
        <stop stop-opacity="1" stop-color="rgb(232,238,247)" offset="0%"/>
        <stop stop-opacity="1" stop-color="rgb(183,201,227)" offset="100%"/>
      </linearGradient>
      <linearGradient x1="0" gradientUnits="userSpaceOnUse" x2="120" y1="70" y2="110" id="linearGradient9" spreadMethod="pad">
        <stop stop-opacity="1" stop-color="rgb(232,238,247)" offset="0%"/>
        <stop stop-opacity="1" stop-color="rgb(183,201,227)" offset="100%"/>
      </linearGradient>
      <linearGradient x1="165" gradientUnits="userSpaceOnUse" x2="285" y1="-35" y2="5" id="linearGradient10" spreadMethod="pad">
        <stop stop-opacity="1" stop-color="rgb(232,238,247)" offset="0%"/>
        <stop stop-opacity="1" stop-color="rgb(183,201,227)" offset="100%"/>
      </linearGradient>
      <clipPath clipPathUnits="userSpaceOnUse" id="clipPath1">
        <path d="M0 0 L1264 0 L1264 946 L0 946 L0 0 Z"/>
      </clipPath>
      <clipPath clipPathUnits="userSpaceOnUse" id="clipPath2">
        <path d="M-59 -203 L588.168 -203 L588.168 281.352 L-59 281.352 L-59 -203 Z"/>
      </clipPath>
    </defs>
    <g fill="url(#linearGradient1)" stroke-miterlimit="1.45" transform="matrix(1.9531,0,0,1.9531,115.2344,396.4844)" stroke-linecap="butt" stroke="url(#linearGradient1)">
      <path d="M165 140 L285 140 L285 180 L165 180 Z" clip-path="url(#clipPath2)" stroke="none"/>
      <path fill="none" d="M165 140 L285 140 L285 180 L165 180 Z" clip-path="url(#clipPath2)" stroke="black"/>
    </g>
    <g font-size="16" stroke-miterlimit="1.45" font-family="sans-serif" transform="matrix(1.9531,0,0,1.9531,115.2344,396.4844)" stroke-linecap="butt">
      <text x="184.9766" xml:space="preserve" y="156.625" clip-path="url(#clipPath2)" stroke="none">Some Map</text>
      <text x="184.418" xml:space="preserve" y="175.4688" clip-path="url(#clipPath2)" stroke="none">Tile Server</text>
    </g>
    <g fill="url(#linearGradient2)" stroke-miterlimit="1.45" transform="matrix(1.9531,0,0,1.9531,115.2344,396.4844)" stroke-linecap="butt" stroke="url(#linearGradient2)">
      <path d="M165 35 L285 35 L285 75 L165 75 Z" clip-path="url(#clipPath2)" stroke="none"/>
      <path fill="none" d="M165 35 L285 35 L285 75 L165 75 Z" clip-path="url(#clipPath2)" stroke="black"/>
    </g>
    <g font-size="16" stroke-miterlimit="1.45" font-family="sans-serif" transform="matrix(1.9531,0,0,1.9531,115.2344,396.4844)" stroke-linecap="butt">
      <text x="196.5859" xml:space="preserve" y="61.0469" clip-path="url(#clipPath2)" stroke="none">node.js</text>
    </g>
    <g fill="url(#linearGradient3)" stroke-miterlimit="1.45" transform="matrix(1.9531,0,0,1.9531,115.2344,396.4844)" stroke-linecap="butt" stroke="url(#linearGradient3)">
      <path d="M395.56 0 L515.56 0 L515.56 40 L395.56 40 Z" clip-path="url(#clipPath2)" stroke="none"/>
      <path fill="none" d="M395.56 0 L515.56 0 L515.56 40 L395.56 40 Z" clip-path="url(#clipPath2)" stroke="black"/>
    </g>
    <g font-size="16" stroke-miterlimit="1.45" font-family="sans-serif" transform="matrix(1.9531,0,0,1.9531,115.2344,396.4844)" stroke-linecap="butt">
      <text x="420.5873" xml:space="preserve" y="26.0469" clip-path="url(#clipPath2)" stroke="none">socket.io</text>
    </g>
    <g fill="url(#linearGradient4)" stroke-miterlimit="1.45" transform="matrix(1.9531,0,0,1.9531,115.2344,396.4844)" stroke-linecap="butt" stroke="url(#linearGradient4)">
      <path d="M395.56 140 L515.56 140 L515.56 180 L395.56 180 Z" clip-path="url(#clipPath2)" stroke="none"/>
      <path fill="none" d="M395.56 140 L515.56 140 L515.56 180 L395.56 180 Z" clip-path="url(#clipPath2)" stroke="black"/>
    </g>
    <g font-size="16" stroke-miterlimit="1.45" font-family="sans-serif" transform="matrix(1.9531,0,0,1.9531,115.2344,396.4844)" stroke-linecap="butt">
      <text x="429.7162" xml:space="preserve" y="166.0469" clip-path="url(#clipPath2)" stroke="none">Leaflet</text>
    </g>
    <g fill="url(#linearGradient5)" stroke-miterlimit="1.45" transform="matrix(1.9531,0,0,1.9531,115.2344,396.4844)" stroke-linecap="butt" stroke="url(#linearGradient5)">
      <rect x="0" width="285" height="40" y="-105" clip-path="url(#clipPath2)" stroke="none"/>
      <rect x="0" y="-105" clip-path="url(#clipPath2)" fill="none" width="285" height="40" stroke="black"/>
      <path fill="none" d="M10 -105 L10 -65 M275 -105 L275 -65 M10 -105 Z" clip-path="url(#clipPath2)" stroke="black"/>
    </g>
    <g font-size="16" stroke-miterlimit="1.45" font-family="sans-serif" transform="matrix(1.9531,0,0,1.9531,115.2344,396.4844)" stroke-linecap="butt">
      <text x="118.5898" xml:space="preserve" y="-78.9531" clip-path="url(#clipPath2)" stroke="none">Server</text>
    </g>
    <g fill="url(#linearGradient6)" stroke-miterlimit="1.45" transform="matrix(1.9531,0,0,1.9531,115.2344,396.4844)" stroke-linecap="butt" stroke="url(#linearGradient6)">
      <rect x="395.56" width="120" height="40" y="-105" clip-path="url(#clipPath2)" stroke="none"/>
      <rect x="395.56" y="-105" clip-path="url(#clipPath2)" fill="none" width="120" height="40" stroke="black"/>
      <path fill="none" d="M405.56 -105 L405.56 -65 M505.56 -105 L505.56 -65 M405.56 -105 Z" clip-path="url(#clipPath2)" stroke="black"/>
    </g>
    <g font-size="16" stroke-miterlimit="1.45" font-family="sans-serif" transform="matrix(1.9531,0,0,1.9531,115.2344,396.4844)" stroke-linecap="butt">
      <text x="432.9858" xml:space="preserve" y="-78.9531" clip-path="url(#clipPath2)" stroke="none">Client</text>
    </g>
    <g fill="url(#linearGradient7)" stroke-miterlimit="1.45" transform="matrix(1.9531,0,0,1.9531,115.2344,396.4844)" stroke-linecap="butt" stroke="url(#linearGradient7)">
      <path d="M395.56 70 L515.56 70 L515.56 110 L395.56 110 Z" clip-path="url(#clipPath2)" stroke="none"/>
      <path fill="none" d="M395.56 70 L515.56 70 L515.56 110 L395.56 110 Z" clip-path="url(#clipPath2)" stroke="black"/>
    </g>
    <g font-size="16" stroke-miterlimit="1.45" font-family="sans-serif" transform="matrix(1.9531,0,0,1.9531,115.2344,396.4844)" stroke-linecap="butt">
      <text x="408.9194" xml:space="preserve" y="96.0469" clip-path="url(#clipPath2)" stroke="none">backbone.js</text>
    </g>
    <g fill="url(#linearGradient8)" stroke-miterlimit="1.45" transform="matrix(1.9531,0,0,1.9531,115.2344,396.4844)" stroke-linecap="butt" stroke="url(#linearGradient8)">
      <path d="M0 0 L120 0 L120 40 L0 40 Z" clip-path="url(#clipPath2)" stroke="none"/>
      <path fill="none" d="M0 0 L120 0 L120 40 L0 40 Z" clip-path="url(#clipPath2)" stroke="black"/>
    </g>
    <g font-size="16" stroke-miterlimit="1.45" font-family="sans-serif" transform="matrix(1.9531,0,0,1.9531,115.2344,396.4844)" stroke-linecap="butt">
      <text x="26.7969" xml:space="preserve" y="26.0469" clip-path="url(#clipPath2)" stroke="none">Postgres</text>
    </g>
    <g fill="url(#linearGradient9)" stroke-miterlimit="1.45" transform="matrix(1.9531,0,0,1.9531,115.2344,396.4844)" stroke-linecap="butt" stroke="url(#linearGradient9)">
      <path d="M0 70 L120 70 L120 110 L0 110 Z" clip-path="url(#clipPath2)" stroke="none"/>
      <path fill="none" d="M0 70 L120 70 L120 110 L0 110 Z" clip-path="url(#clipPath2)" stroke="black"/>
    </g>
    <g font-size="16" stroke-miterlimit="1.45" font-family="sans-serif" transform="matrix(1.9531,0,0,1.9531,115.2344,396.4844)" stroke-linecap="butt">
      <text x="32.2148" xml:space="preserve" y="96.0469" clip-path="url(#clipPath2)" stroke="none">Postgis</text>
    </g>
    <g fill="url(#linearGradient10)" stroke-miterlimit="1.45" transform="matrix(1.9531,0,0,1.9531,115.2344,396.4844)" stroke-linecap="butt" stroke="url(#linearGradient10)">
      <path d="M165 -35 L285 -35 L285 5 L165 5 Z" clip-path="url(#clipPath2)" stroke="none"/>
      <path fill="none" d="M165 -35 L285 -35 L285 5 L165 5 Z" clip-path="url(#clipPath2)" stroke="black"/>
    </g>
    <g font-size="16" stroke-miterlimit="1.45" font-family="sans-serif" transform="matrix(1.9531,0,0,1.9531,115.2344,396.4844)" stroke-linecap="butt">
      <text x="186.0156" xml:space="preserve" y="-18.375" clip-path="url(#clipPath2)" stroke="none">dev/mock</text>
      <text x="196.5859" xml:space="preserve" y="0.4688" clip-path="url(#clipPath2)" stroke="none">node.js</text>
    </g>
    <g stroke-linecap="butt" transform="matrix(1.9531,0,0,1.9531,115.2344,396.4844)" stroke-miterlimit="1.45">
      <path fill="none" d="M292.8854 44.6947 L387.638 30.3108" clip-path="url(#clipPath2)"/>
    </g>
    <g stroke-linecap="butt" transform="matrix(1.9531,0,0,1.9531,115.2344,396.4844)" stroke-miterlimit="1.45">
      <path d="M284.976 45.8954 L297.5905 49.0377 L293.8741 44.5446 L296.0896 39.151 Z" clip-path="url(#clipPath2)" stroke="none"/>
      <path d="M395.5474 29.1102 L382.9329 25.9678 L386.6494 30.4609 L384.4338 35.8546 Z" clip-path="url(#clipPath2)" stroke="none"/>
      <path fill="none" d="M284.976 160 L387.5474 160" clip-path="url(#clipPath2)"/>
      <path d="M395.5474 160 L383.5474 155 L386.5474 160 L383.5474 165 Z" clip-path="url(#clipPath2)" stroke="none"/>
      <path fill="none" d="M455.56 47.9951 L455.56 62.0273" clip-path="url(#clipPath2)"/>
      <path d="M455.56 39.9951 L450.56 51.9951 L455.56 48.9951 L460.56 51.9951 Z" clip-path="url(#clipPath2)" stroke="none"/>
      <path d="M455.56 70.0273 L460.56 58.0273 L455.56 61.0273 L450.56 58.0273 Z" clip-path="url(#clipPath2)" stroke="none"/>
      <path fill="none" d="M455.56 117.9951 L455.56 132.0273" clip-path="url(#clipPath2)"/>
      <path d="M455.56 109.9951 L450.56 121.9951 L455.56 118.9951 L460.56 121.9951 Z" clip-path="url(#clipPath2)" stroke="none"/>
      <path d="M455.56 140.0273 L460.56 128.0273 L455.56 131.0273 L450.56 128.0273 Z" clip-path="url(#clipPath2)" stroke="none"/>
      <path fill="none" d="M157.1924 40.6166 L127.8473 34.3919" clip-path="url(#clipPath2)"/>
      <path d="M165.0183 42.2766 L154.317 34.8954 L156.2142 40.4091 L152.242 44.6777 Z" clip-path="url(#clipPath2)" stroke="none"/>
      <path d="M120.0215 32.7318 L130.7227 40.113 L128.8256 34.5994 L132.7978 30.3307 Z" clip-path="url(#clipPath2)" stroke="none"/>
      <path fill="none" d="M60 47.9951 L60 62.0273" clip-path="url(#clipPath2)"/>
      <path d="M60 39.9951 L55 51.9951 L60 48.9951 L65 51.9951 Z" clip-path="url(#clipPath2)" stroke="none"/>
      <path d="M60 70.0273 L65 58.0273 L60 61.0273 L55 58.0273 Z" clip-path="url(#clipPath2)" stroke="none"/>
      <path fill="none" d="M157.1924 69.3834 L127.8473 75.6081" clip-path="url(#clipPath2)"/>
      <path d="M165.0183 67.7234 L152.242 65.3223 L156.2142 69.5909 L154.317 75.1046 Z" clip-path="url(#clipPath2)" stroke="none"/>
      <path d="M120.0215 77.2682 L132.7978 79.6693 L128.8256 75.4006 L130.7227 69.887 Z" clip-path="url(#clipPath2)" stroke="none"/>
      <path fill="none" d="M387.6746 9.6947 L292.922 -4.6892" clip-path="url(#clipPath2)"/>
      <path d="M395.584 10.8954 L384.4704 4.151 L386.6859 9.5446 L382.9695 14.0377 Z" clip-path="url(#clipPath2)" stroke="none"/>
      <path d="M285.0126 -5.8898 L296.1262 0.8546 L293.9106 -4.5391 L297.6271 -9.0322 Z" clip-path="url(#clipPath2)" stroke="none"/>
    </g>
  </g>
</svg>
