<?xml version="1.0" encoding="UTF-8"?>
<svg xmlns="http://www.w3.org/2000/svg" xmlns:xlink="http://www.w3.org/1999/xlink" fill-opacity="1" color-rendering="auto" color-interpolation="auto" stroke="black" text-rendering="auto" stroke-linecap="square" width="1249" stroke-miterlimit="10" stroke-opacity="1" shape-rendering="auto" fill="black" stroke-dasharray="none" font-weight="normal" stroke-width="1" height="931" font-family="'Dialog'" font-style="normal" stroke-linejoin="miter" font-size="12" stroke-dashoffset="0" image-rendering="auto">
  <!--Generated by ySVG-->
  <defs id="genericDefs"/>
  <g>
    <defs id="defs1">
      <linearGradient x1="1" gradientUnits="userSpaceOnUse" x2="121" y1="0" y2="40" id="linearGradient1" spreadMethod="pad">
        <stop stop-opacity="1" stop-color="rgb(232,238,247)" offset="0%"/>
        <stop stop-opacity="1" stop-color="rgb(183,201,227)" offset="100%"/>
      </linearGradient>
      <linearGradient x1="1" gradientUnits="userSpaceOnUse" x2="121" y1="70" y2="110" id="linearGradient2" spreadMethod="pad">
        <stop stop-opacity="1" stop-color="rgb(232,238,247)" offset="0%"/>
        <stop stop-opacity="1" stop-color="rgb(183,201,227)" offset="100%"/>
      </linearGradient>
      <linearGradient x1="1" gradientUnits="userSpaceOnUse" x2="121" y1="140" y2="180" id="linearGradient3" spreadMethod="pad">
        <stop stop-opacity="1" stop-color="rgb(232,238,247)" offset="0%"/>
        <stop stop-opacity="1" stop-color="rgb(183,201,227)" offset="100%"/>
      </linearGradient>
      <linearGradient x1="1" gradientUnits="userSpaceOnUse" x2="121" y1="210" y2="250" id="linearGradient4" spreadMethod="pad">
        <stop stop-opacity="1" stop-color="rgb(232,238,247)" offset="0%"/>
        <stop stop-opacity="1" stop-color="rgb(183,201,227)" offset="100%"/>
      </linearGradient>
      <linearGradient x1="1" gradientUnits="userSpaceOnUse" x2="121" y1="280" y2="320" id="linearGradient5" spreadMethod="pad">
        <stop stop-opacity="1" stop-color="rgb(232,238,247)" offset="0%"/>
        <stop stop-opacity="1" stop-color="rgb(183,201,227)" offset="100%"/>
      </linearGradient>
      <linearGradient x1="151" gradientUnits="userSpaceOnUse" x2="271" y1="140" y2="180" id="linearGradient6" spreadMethod="pad">
        <stop stop-opacity="1" stop-color="rgb(232,238,247)" offset="0%"/>
        <stop stop-opacity="1" stop-color="rgb(183,201,227)" offset="100%"/>
      </linearGradient>
      <linearGradient x1="151" gradientUnits="userSpaceOnUse" x2="271" y1="70" y2="110" id="linearGradient7" spreadMethod="pad">
        <stop stop-opacity="1" stop-color="rgb(232,238,247)" offset="0%"/>
        <stop stop-opacity="1" stop-color="rgb(183,201,227)" offset="100%"/>
      </linearGradient>
      <linearGradient x1="151" gradientUnits="userSpaceOnUse" x2="271" y1="0" y2="40" id="linearGradient8" spreadMethod="pad">
        <stop stop-opacity="1" stop-color="rgb(232,238,247)" offset="0%"/>
        <stop stop-opacity="1" stop-color="rgb(183,201,227)" offset="100%"/>
      </linearGradient>
      <clipPath clipPathUnits="userSpaceOnUse" id="clipPath1">
        <path d="M0 0 L1249 0 L1249 931 L0 931 L0 0 Z"/>
      </clipPath>
      <clipPath clipPathUnits="userSpaceOnUse" id="clipPath2">
        <path d="M-168 -66 L471.488 -66 L471.488 410.672 L-168 410.672 L-168 -66 Z"/>
      </clipPath>
    </defs>
    <g fill="url(#linearGradient1)" stroke-miterlimit="1.45" transform="matrix(1.9531,0,0,1.9531,328.125,128.9062)" stroke-linecap="butt" stroke="url(#linearGradient1)">
      <path d="M1 0 L121 0 L121 40 L1 40 Z" clip-path="url(#clipPath2)" stroke="none"/>
      <path fill="none" d="M1 0 L121 0 L121 40 L1 40 Z" clip-path="url(#clipPath2)" stroke="black"/>
    </g>
    <g font-size="16" stroke-miterlimit="1.45" font-family="sans-serif" transform="matrix(1.9531,0,0,1.9531,328.125,128.9062)" stroke-linecap="butt">
      <text x="29.9727" xml:space="preserve" y="26.0469" clip-path="url(#clipPath2)" stroke="none">Division</text>
    </g>
    <g fill="url(#linearGradient2)" stroke-miterlimit="1.45" transform="matrix(1.9531,0,0,1.9531,328.125,128.9062)" stroke-linecap="butt" stroke="url(#linearGradient2)">
      <path d="M1 70 L121 70 L121 110 L1 110 Z" clip-path="url(#clipPath2)" stroke="none"/>
      <path fill="none" d="M1 70 L121 70 L121 110 L1 110 Z" clip-path="url(#clipPath2)" stroke="black"/>
    </g>
    <g font-size="16" stroke-miterlimit="1.45" font-family="sans-serif" transform="matrix(1.9531,0,0,1.9531,328.125,128.9062)" stroke-linecap="butt">
      <text x="36.957" xml:space="preserve" y="96.0469" clip-path="url(#clipPath2)" stroke="none">Sector</text>
    </g>
    <g fill="url(#linearGradient3)" stroke-miterlimit="1.45" transform="matrix(1.9531,0,0,1.9531,328.125,128.9062)" stroke-linecap="butt" stroke="url(#linearGradient3)">
      <path d="M1 140 L121 140 L121 180 L1 180 Z" clip-path="url(#clipPath2)" stroke="none"/>
      <path fill="none" d="M1 140 L121 140 L121 180 L1 180 Z" clip-path="url(#clipPath2)" stroke="black"/>
    </g>
    <g font-size="16" stroke-miterlimit="1.45" font-family="sans-serif" transform="matrix(1.9531,0,0,1.9531,328.125,128.9062)" stroke-linecap="butt">
      <text x="41.5703" xml:space="preserve" y="166.0469" clip-path="url(#clipPath2)" stroke="none">Crew</text>
    </g>
    <g fill="url(#linearGradient4)" stroke-miterlimit="1.45" transform="matrix(1.9531,0,0,1.9531,328.125,128.9062)" stroke-linecap="butt" stroke="url(#linearGradient4)">
      <path d="M1 210 L121 210 L121 250 L1 250 Z" clip-path="url(#clipPath2)" stroke="none"/>
      <path fill="none" d="M1 210 L121 210 L121 250 L1 250 Z" clip-path="url(#clipPath2)" stroke="black"/>
    </g>
    <g font-size="16" stroke-miterlimit="1.45" font-family="sans-serif" transform="matrix(1.9531,0,0,1.9531,328.125,128.9062)" stroke-linecap="butt">
      <text x="33.168" xml:space="preserve" y="236.0469" clip-path="url(#clipPath2)" stroke="none">Vehicle</text>
    </g>
    <g fill="url(#linearGradient5)" stroke-miterlimit="1.45" transform="matrix(1.9531,0,0,1.9531,328.125,128.9062)" stroke-linecap="butt" stroke="url(#linearGradient5)">
      <path d="M1 280 L121 280 L121 320 L1 320 Z" clip-path="url(#clipPath2)" stroke="none"/>
      <path fill="none" d="M1 280 L121 280 L121 320 L1 320 Z" clip-path="url(#clipPath2)" stroke="black"/>
    </g>
    <g font-size="16" stroke-miterlimit="1.45" font-family="sans-serif" transform="matrix(1.9531,0,0,1.9531,328.125,128.9062)" stroke-linecap="butt">
      <text x="7.457" xml:space="preserve" y="306.0469" clip-path="url(#clipPath2)" stroke="none">Crew Member</text>
    </g>
    <g fill="url(#linearGradient6)" stroke-miterlimit="1.45" transform="matrix(1.9531,0,0,1.9531,328.125,128.9062)" stroke-linecap="butt" stroke="url(#linearGradient6)">
      <path d="M151 140 L271 140 L271 180 L151 180 Z" clip-path="url(#clipPath2)" stroke="none"/>
      <path fill="none" d="M151 140 L271 140 L271 180 L151 180 Z" clip-path="url(#clipPath2)" stroke="black"/>
    </g>
    <g font-size="16" stroke-miterlimit="1.45" font-family="sans-serif" transform="matrix(1.9531,0,0,1.9531,328.125,128.9062)" stroke-linecap="butt">
      <text x="191.5703" xml:space="preserve" y="156.625" clip-path="url(#clipPath2)" stroke="none">Crew</text>
      <text x="163.4648" xml:space="preserve" y="175.4688" clip-path="url(#clipPath2)" stroke="none">Commander</text>
    </g>
    <g fill="url(#linearGradient7)" stroke-miterlimit="1.45" transform="matrix(1.9531,0,0,1.9531,328.125,128.9062)" stroke-linecap="butt" stroke="url(#linearGradient7)">
      <path d="M151 70 L271 70 L271 110 L151 110 Z" clip-path="url(#clipPath2)" stroke="none"/>
      <path fill="none" d="M151 70 L271 70 L271 110 L151 110 Z" clip-path="url(#clipPath2)" stroke="black"/>
    </g>
    <g font-size="16" stroke-miterlimit="1.45" font-family="sans-serif" transform="matrix(1.9531,0,0,1.9531,328.125,128.9062)" stroke-linecap="butt">
      <text x="186.957" xml:space="preserve" y="86.625" clip-path="url(#clipPath2)" stroke="none">Sector</text>
      <text x="163.4648" xml:space="preserve" y="105.4688" clip-path="url(#clipPath2)" stroke="none">Commander</text>
    </g>
    <g fill="url(#linearGradient8)" stroke-miterlimit="1.45" transform="matrix(1.9531,0,0,1.9531,328.125,128.9062)" stroke-linecap="butt" stroke="url(#linearGradient8)">
      <path d="M151 0 L271 0 L271 40 L151 40 Z" clip-path="url(#clipPath2)" stroke="none"/>
      <path fill="none" d="M151 0 L271 0 L271 40 L151 40 Z" clip-path="url(#clipPath2)" stroke="black"/>
    </g>
    <g font-size="16" stroke-miterlimit="1.45" font-family="sans-serif" transform="matrix(1.9531,0,0,1.9531,328.125,128.9062)" stroke-linecap="butt">
      <text x="179.9727" xml:space="preserve" y="16.625" clip-path="url(#clipPath2)" stroke="none">Division</text>
      <text x="163.4648" xml:space="preserve" y="35.4688" clip-path="url(#clipPath2)" stroke="none">Commander</text>
    </g>
    <g stroke-linecap="butt" transform="matrix(1.9531,0,0,1.9531,328.125,128.9062)" stroke-miterlimit="1.45">
      <path fill="none" d="M61 70.0049 L61 46.9727" clip-path="url(#clipPath2)"/>
    </g>
    <g fill="white" stroke-miterlimit="1.45" transform="matrix(1.9531,0,0,1.9531,328.125,128.9062)" stroke-linecap="butt" stroke="white">
      <path d="M61 39.9727 L66 46.9727 L61 53.9727 L56 46.9727 Z" clip-path="url(#clipPath2)" stroke="none"/>
      <path fill="none" d="M61 39.9727 L66 46.9727 L61 53.9727 L56 46.9727 Z" clip-path="url(#clipPath2)" stroke="black"/>
      <path fill="none" d="M61 140.0049 L61 116.9727" clip-path="url(#clipPath2)" stroke="black"/>
      <path d="M61 109.9727 L66 116.9727 L61 123.9727 L56 116.9727 Z" clip-path="url(#clipPath2)" stroke="none"/>
      <path fill="none" d="M61 109.9727 L66 116.9727 L61 123.9727 L56 116.9727 Z" clip-path="url(#clipPath2)" stroke="black"/>
      <path fill="none" d="M61 210.0049 L61 186.9727" clip-path="url(#clipPath2)" stroke="black"/>
      <path d="M61 179.9727 L66 186.9727 L61 193.9727 L56 186.9727 Z" clip-path="url(#clipPath2)" stroke="none"/>
      <path fill="none" d="M61 179.9727 L66 186.9727 L61 193.9727 L56 186.9727 Z" clip-path="url(#clipPath2)" stroke="black"/>
      <path fill="none" d="M61 280.0049 L61 256.9727" clip-path="url(#clipPath2)" stroke="black"/>
      <path d="M61 249.9727 L66 256.9727 L61 263.9727 L56 256.9727 Z" clip-path="url(#clipPath2)" stroke="none"/>
      <path fill="none" d="M61 249.9727 L66 256.9727 L61 263.9727 L56 256.9727 Z" clip-path="url(#clipPath2)" stroke="black"/>
      <path fill="none" d="M150.978 160 L120.9707 160" clip-path="url(#clipPath2)" stroke="black"/>
      <path fill="none" d="M121.022 90 L151.0293 90" clip-path="url(#clipPath2)" stroke="black"/>
      <path fill="none" d="M121.022 20 L151.0293 20" clip-path="url(#clipPath2)" stroke="black"/>
    </g>
  </g>
</svg>
