<?xml version="1.0" encoding="UTF-8"?>
<svg xmlns="http://www.w3.org/2000/svg" xmlns:xlink="http://www.w3.org/1999/xlink" fill-opacity="1" color-rendering="auto" color-interpolation="auto" stroke="black" text-rendering="auto" stroke-linecap="square" width="1249" stroke-miterlimit="10" stroke-opacity="1" shape-rendering="auto" fill="black" stroke-dasharray="none" font-weight="normal" stroke-width="1" height="931" font-family="'Dialog'" font-style="normal" stroke-linejoin="miter" font-size="12" stroke-dashoffset="0" image-rendering="auto">
  <!--Generated by ySVG-->
  <defs id="genericDefs"/>
  <g>
    <defs id="defs1">
      <linearGradient x1="150" gradientUnits="userSpaceOnUse" x2="570" y1="150" y2="190" id="linearGradient1" spreadMethod="pad">
        <stop stop-opacity="1" stop-color="rgb(255,204,0)" offset="0%"/>
        <stop stop-opacity="1" stop-color="rgb(255,153,0)" offset="100%"/>
      </linearGradient>
      <linearGradient x1="150" gradientUnits="userSpaceOnUse" x2="270" y1="80" y2="120" id="linearGradient2" spreadMethod="pad">
        <stop stop-opacity="1" stop-color="rgb(255,153,153)" offset="0%"/>
        <stop stop-opacity="1" stop-color="rgb(255,102,102)" offset="100%"/>
      </linearGradient>
      <linearGradient x1="0" gradientUnits="userSpaceOnUse" x2="270" y1="40" y2="80" id="linearGradient3" spreadMethod="pad">
        <stop stop-opacity="1" stop-color="rgb(255,204,0)" offset="0%"/>
        <stop stop-opacity="1" stop-color="rgb(255,153,0)" offset="100%"/>
      </linearGradient>
      <linearGradient x1="300" gradientUnits="userSpaceOnUse" x2="420" y1="80" y2="120" id="linearGradient4" spreadMethod="pad">
        <stop stop-opacity="1" stop-color="rgb(255,153,153)" offset="0%"/>
        <stop stop-opacity="1" stop-color="rgb(255,102,102)" offset="100%"/>
      </linearGradient>
      <linearGradient x1="150" gradientUnits="userSpaceOnUse" x2="270" y1="0" y2="40" id="linearGradient5" spreadMethod="pad">
        <stop stop-opacity="1" stop-color="rgb(255,255,153)" offset="0%"/>
        <stop stop-opacity="1" stop-color="yellow" offset="100%"/>
      </linearGradient>
      <linearGradient x1="0" gradientUnits="userSpaceOnUse" x2="120" y1="0" y2="40" id="linearGradient6" spreadMethod="pad">
        <stop stop-opacity="1" stop-color="rgb(255,255,153)" offset="0%"/>
        <stop stop-opacity="1" stop-color="yellow" offset="100%"/>
      </linearGradient>
      <linearGradient x1="450" gradientUnits="userSpaceOnUse" x2="570" y1="80" y2="120" id="linearGradient7" spreadMethod="pad">
        <stop stop-opacity="1" stop-color="rgb(232,238,247)" offset="0%"/>
        <stop stop-opacity="1" stop-color="rgb(0,204,255)" offset="100%"/>
      </linearGradient>
      <clipPath clipPathUnits="userSpaceOnUse" id="clipPath1">
        <path d="M0 0 L1249 0 L1249 931 L0 931 L0 0 Z"/>
      </clipPath>
      <clipPath clipPathUnits="userSpaceOnUse" id="clipPath2">
        <path d="M-28 -118 L611.488 -118 L611.488 358.672 L-28 358.672 L-28 -118 Z"/>
      </clipPath>
    </defs>
    <g fill="url(#linearGradient1)" stroke-miterlimit="1.45" transform="matrix(1.9531,0,0,1.9531,54.6875,230.4688)" stroke-linecap="butt" stroke="url(#linearGradient1)">
      <path d="M150 150 L570 150 L570 190 L150 190 Z" clip-path="url(#clipPath2)" stroke="none"/>
      <path fill="none" d="M150 150 L570 150 L570 190 L150 190 Z" clip-path="url(#clipPath2)" stroke="black"/>
    </g>
    <g font-size="16" stroke-miterlimit="1.45" font-family="sans-serif" transform="matrix(1.9531,0,0,1.9531,54.6875,230.4688)" stroke-linecap="butt">
      <text x="349.875" xml:space="preserve" y="176.0469" clip-path="url(#clipPath2)" stroke="none">???</text>
    </g>
    <g fill="url(#linearGradient2)" stroke-miterlimit="1.45" transform="matrix(1.9531,0,0,1.9531,54.6875,230.4688)" stroke-linecap="butt" stroke="url(#linearGradient2)">
      <path d="M150 80 L270 80 L270 120 L150 120 Z" clip-path="url(#clipPath2)" stroke="none"/>
      <path fill="none" d="M150 80 L270 80 L270 120 L150 120 Z" clip-path="url(#clipPath2)" stroke="black"/>
    </g>
    <g font-size="16" stroke-miterlimit="1.45" font-family="sans-serif" transform="matrix(1.9531,0,0,1.9531,54.6875,230.4688)" stroke-linecap="butt">
      <text x="186.0898" xml:space="preserve" y="96.625" clip-path="url(#clipPath2)" stroke="none">Server</text>
      <text x="176.9648" xml:space="preserve" y="115.4688" clip-path="url(#clipPath2)" stroke="none">(Vehicle)</text>
    </g>
    <g fill="url(#linearGradient3)" stroke-miterlimit="1.45" transform="matrix(1.9531,0,0,1.9531,54.6875,230.4688)" stroke-linecap="butt" stroke="url(#linearGradient3)">
      <path d="M0 40 L270 40 L270 80 L0 80 Z" clip-path="url(#clipPath2)" stroke="none"/>
      <path fill="none" d="M0 40 L270 40 L270 80 L0 80 Z" clip-path="url(#clipPath2)" stroke="black"/>
    </g>
    <g font-size="16" stroke-miterlimit="1.45" font-family="sans-serif" transform="matrix(1.9531,0,0,1.9531,54.6875,230.4688)" stroke-linecap="butt">
      <text x="112.4609" xml:space="preserve" y="66.0469" clip-path="url(#clipPath2)" stroke="none">WLAN</text>
    </g>
    <g fill="url(#linearGradient4)" stroke-miterlimit="1.45" transform="matrix(1.9531,0,0,1.9531,54.6875,230.4688)" stroke-linecap="butt" stroke="url(#linearGradient4)">
      <path d="M300 80 L420 80 L420 120 L300 120 Z" clip-path="url(#clipPath2)" stroke="none"/>
      <path fill="none" d="M300 80 L420 80 L420 120 L300 120 Z" clip-path="url(#clipPath2)" stroke="black"/>
    </g>
    <g font-size="16" stroke-miterlimit="1.45" font-family="sans-serif" transform="matrix(1.9531,0,0,1.9531,54.6875,230.4688)" stroke-linecap="butt">
      <text x="336.0898" xml:space="preserve" y="96.625" clip-path="url(#clipPath2)" stroke="none">Server</text>
      <text x="326.9648" xml:space="preserve" y="115.4688" clip-path="url(#clipPath2)" stroke="none">(Vehicle)</text>
    </g>
    <g fill="url(#linearGradient5)" stroke-miterlimit="1.45" transform="matrix(1.9531,0,0,1.9531,54.6875,230.4688)" stroke-linecap="butt" stroke="url(#linearGradient5)">
      <path d="M150 0 L270 0 L270 40 L150 40 Z" clip-path="url(#clipPath2)" stroke="none"/>
      <path fill="none" d="M150 0 L270 0 L270 40 L150 40 Z" clip-path="url(#clipPath2)" stroke="black"/>
    </g>
    <g font-size="16" stroke-miterlimit="1.45" font-family="sans-serif" transform="matrix(1.9531,0,0,1.9531,54.6875,230.4688)" stroke-linecap="butt">
      <text x="169.3047" xml:space="preserve" y="16.625" clip-path="url(#clipPath2)" stroke="none">Client App</text>
      <text x="179.3398" xml:space="preserve" y="35.4688" clip-path="url(#clipPath2)" stroke="none">(Device)</text>
    </g>
    <g fill="url(#linearGradient6)" stroke-miterlimit="1.45" transform="matrix(1.9531,0,0,1.9531,54.6875,230.4688)" stroke-linecap="butt" stroke="url(#linearGradient6)">
      <path d="M0 0 L120 0 L120 40 L0 40 Z" clip-path="url(#clipPath2)" stroke="none"/>
      <path fill="none" d="M0 0 L120 0 L120 40 L0 40 Z" clip-path="url(#clipPath2)" stroke="black"/>
    </g>
    <g font-size="16" stroke-miterlimit="1.45" font-family="sans-serif" transform="matrix(1.9531,0,0,1.9531,54.6875,230.4688)" stroke-linecap="butt">
      <text x="19.3047" xml:space="preserve" y="16.625" clip-path="url(#clipPath2)" stroke="none">Client App</text>
      <text x="29.3398" xml:space="preserve" y="35.4688" clip-path="url(#clipPath2)" stroke="none">(Device)</text>
    </g>
    <g fill="url(#linearGradient7)" stroke-miterlimit="1.45" transform="matrix(1.9531,0,0,1.9531,54.6875,230.4688)" stroke-linecap="butt" stroke="url(#linearGradient7)">
      <path d="M450 80 L570 80 L570 120 L450 120 Z" clip-path="url(#clipPath2)" stroke="none"/>
      <path fill="none" d="M450 80 L570 80 L570 120 L450 120 Z" clip-path="url(#clipPath2)" stroke="black"/>
    </g>
    <g font-size="16" stroke-miterlimit="1.45" font-family="sans-serif" transform="matrix(1.9531,0,0,1.9531,54.6875,230.4688)" stroke-linecap="butt">
      <text x="472.6172" xml:space="preserve" y="106.0469" clip-path="url(#clipPath2)" stroke="none">Base (HQ)</text>
    </g>
    <g stroke-linecap="butt" transform="matrix(1.9531,0,0,1.9531,54.6875,230.4688)" stroke-miterlimit="1.45">
      <path fill="none" d="M210 127.9613 L210 141.9766" clip-path="url(#clipPath2)"/>
    </g>
    <g stroke-linecap="butt" transform="matrix(1.9531,0,0,1.9531,54.6875,230.4688)" stroke-miterlimit="1.45">
      <path d="M210 119.9613 L205 131.9613 L210 128.9613 L215 131.9613 Z" clip-path="url(#clipPath2)" stroke="none"/>
      <path d="M210 149.9766 L215 137.9766 L210 140.9766 L205 137.9766 Z" clip-path="url(#clipPath2)" stroke="none"/>
      <path fill="none" d="M360 127.9668 L360 141.9902" clip-path="url(#clipPath2)"/>
      <path d="M360 119.9668 L355 131.9668 L360 128.9668 L365 131.9668 Z" clip-path="url(#clipPath2)" stroke="none"/>
      <path d="M360 149.9902 L365 137.9902 L360 140.9902 L355 137.9902 Z" clip-path="url(#clipPath2)" stroke="none"/>
      <path fill="none" d="M510 127.9738 L510 141.9785" clip-path="url(#clipPath2)"/>
      <path d="M510 119.9738 L505 131.9738 L510 128.9738 L515 131.9738 Z" clip-path="url(#clipPath2)" stroke="none"/>
      <path d="M510 149.9785 L515 137.9785 L510 140.9785 L505 137.9785 Z" clip-path="url(#clipPath2)" stroke="none"/>
    </g>
  </g>
</svg>
